<svg width="110" height="110" viewBox="0 0 110 110" xmlns="http://www.w3.org/2000/svg">
  <g fill="none" fill-rule="evenodd"><path d="M55 110c30.293 0 55-24.707 55-55S85.293 0 55 0 0 24.707 0 55s24.707 55 55 55" fill="#EDEDED"/><path d="M69.93 19.879c2.08 6.125-8.307 2.131-14.659.998-14.603-2.604-18.748 5.568-24.737 15.523-4.83 8.027-.737 19.051 3.056 25.349 4.475 7.432 10.198 5.481 4.011 15.348-2.937 4.681-8.41 7.645-3.97 11.513 10.01 8.721 8.692 10.13 23.444 10.951 5.868.327 3.917-3.18 2.011-7.01-2.964-5.958.002-16.51 8.405-15.371 7.482 1.015 8.706-.814 8.668-5.772-.017-2.262-.07-4.882 2.182-8.006 2.266-3.144 3.76-5.044.852-7.844-7.91-7.619 1.836-12.166-5.043-21.3 7.112-7.278.237-13.251-4.22-14.379" fill="#FFF"/><path d="M60.92 98.391a.566.566 0 01-1.053.416l-.203-.512c-1.59-4.004-3.13-7.88-.347-11.85 1.484-2.12 1.595-2.736 1.824-4.007.103-.577.23-1.278.486-2.244 1.13-4.266 4.035-4.068 7.044-3.27.462.122.933.262 1.397.4.933.276 1.847.546 2.655.663 1.116.161 2.317.104 3.238-.394.698-.377 1.25-1.027 1.483-2.06.114-.496.114-1.053.114-1.632 0-1.174 0-2.438.794-3.776.384-.647.635-1.138.613-1.55v-.006c-.024-.395-.313-.82-1-1.4a.566.566 0 01.144-.954c.74-.313 1.096-.572 1.222-.81.086-.165.033-.38-.067-.63-.368-.917-.582-1.658-.436-2.349.156-.733.68-1.314 1.78-1.828 1.501-.7 2.172-1.162 1.951-1.982-.299-1.105-1.722-2.91-4.364-6.192l-.027-.037c-.656-.82-1.053-1.514-1.176-2.193-.135-.747.047-1.43.563-2.178.523-.759.83-1.25.955-1.688.118-.41.088-.839-.05-1.49-.547-2.568-1.88-5.182-3.124-7.622a75.556 75.556 0 01-1.424-2.893.565.565 0 01.54-.8c1.601-.035 3.041-.856 4.01-2.14a6.394 6.394 0 001.238-3.242c.12-1.244-.093-2.61-.742-3.995-1.273-2.714-4.219-5.483-9.592-7.539.59 2.401-.896 3.6-3.672 4.077-2.817.486-7.08.154-11.784-.364-4.178-.46-7.775-.34-11.078.655-3.29.991-6.308 2.86-9.346 5.9-2.23 2.234-4.146 4.94-5.423 7.92-1.153 2.688-1.789 5.603-1.673 8.598.141 3.694 1.651 8.327 3.804 12.682 2.275 4.603 5.261 8.877 8.107 11.392a.563.563 0 01.171.277c.585 2.132-.265 5.532-1.772 8.893-1.64 3.663-4.08 7.328-6.279 9.244a.565.565 0 11-.742-.852c2.08-1.813 4.406-5.325 5.988-8.853 1.372-3.06 2.177-6.099 1.751-7.978-2.908-2.62-5.934-6.964-8.236-11.623-2.217-4.485-3.773-9.282-3.92-13.142-.123-3.168.547-6.246 1.762-9.08 1.338-3.122 3.336-5.948 5.662-8.276 3.176-3.18 6.35-5.14 9.823-6.186 3.461-1.042 7.2-1.17 11.521-.696 4.618.508 8.788.837 11.475.374 2.311-.398 3.402-1.453 2.42-3.67a.566.566 0 01.701-.762c6.413 2.202 9.883 5.388 11.358 8.532.74 1.575.981 3.142.841 4.578a7.514 7.514 0 01-1.462 3.814c-1.009 1.338-2.449 2.26-4.08 2.52.331.691.693 1.4 1.061 2.122 1.276 2.504 2.644 5.187 3.222 7.9.178.838.208 1.414.03 2.036-.17.595-.52 1.168-1.109 2.021-.335.484-.458.904-.38 1.335.087.48.407 1.018.943 1.688l.03.034c2.736 3.401 4.213 5.28 4.571 6.607.436 1.61-.477 2.327-2.566 3.3-.734.343-1.07.67-1.148 1.038-.088.413.086.971.376 1.693.214.535.306 1.036.021 1.576-.174.331-.492.646-1.025.954.513.56.75 1.071.784 1.61l.001.018c.04.71-.28 1.363-.77 2.19-.638 1.072-.637 2.171-.637 3.193 0 .651 0 1.275-.139 1.885-.316 1.394-1.078 2.282-2.052 2.807-1.164.628-2.61.711-3.933.521-.887-.128-1.84-.41-2.814-.699a49.987 49.987 0 00-1.366-.39c-2.44-.648-4.789-.828-5.66 2.462a25.383 25.383 0 00-.47 2.155c-.259 1.441-.385 2.136-2.008 4.454-2.433 3.473-1.005 7.071.472 10.788l.203.512z" fill="#2B2B2B"/></g>
</svg>
