<svg id="Layer_1" data-name="Layer 1" xmlns="http://www.w3.org/2000/svg" viewBox="0 0 268.15 191.96">
<defs>
<style>.cls-1{fill:#d4d9e1;}.cls-1,.cls-10,.cls-4,.cls-5,.cls-8,.cls-9{fill-rule:evenodd;}.cls-2{fill:#f5b086;}.cls-10,.cls-3{fill:#d24f4d;}.cls-4{fill:#ffd975;}.cls-5,.cls-7{fill:none;}.cls-6{fill:#374862;}.cls-8{fill:#999;}.cls-9{fill:#e4e7eb;}.cls-11{fill:#465878;}.cls-12{fill:#354051;}.cls-13{fill:#667489;}
</style>
</defs>
<title>empty state 0 rezultate</title><path class="cls-1" d="M140.51,179c70.46,0,127.57,2.91,127.57,6.5S211,192,140.51,192,13,189.07,13,185.48,70.06,179,140.51,179Z" transform="translate(0.08 -0.02)"/><path class="cls-2" d="M194.34,70.21a14.25,14.25,0,0,0-11.51-9.68l-50.14-7.27L110.27,8A14.27,14.27,0,0,0,84.7,8L62.27,53.26,12.13,60.53a14.21,14.21,0,0,0-7.9,24.25l36.28,35.28L32,169.86a14.24,14.24,0,0,0,20.68,15l44.85-23.51,44.85,23.51a14.24,14.24,0,0,0,20.68-15l-8.56-49.8,36.28-35.28A14.16,14.16,0,0,0,194.34,70.21Z" transform="translate(0.08 -0.02)"/><path class="cls-3" d="M187.62,71.5a13.28,13.28,0,0,0-10.7-9.08L130.27,55.6,109.41,13.07a13.23,13.23,0,0,0-23.79,0L64.76,55.6,18.12,62.42a13.36,13.36,0,0,0-7.35,22.76l33.75,33.1-8,46.74a13.37,13.37,0,0,0,5.28,13,13.18,13.18,0,0,0,14,1L97.52,157l41.72,22.07A13.28,13.28,0,0,0,158.48,165l-8-46.74,33.76-33.1A13.41,13.41,0,0,0,187.62,71.5Z" transform="translate(0.08 -0.02)"/><path class="cls-4" d="M54.32,60l-32.7,4.64c-3,.43-5,2.21-4.54,4s3.34,2.86,6.35,2.43l32.69-4.64c3-.43,5.05-2.21,4.55-4S57.33,59.55,54.32,60Z" transform="translate(0.08 -0.02)"/><path class="cls-4" d="M97,9c3.59,0,6.5,1.79,6.5,4s-2.91,4-6.5,4-6.5-1.79-6.5-4S93.42,9,97,9Z" transform="translate(0.08 -0.02)"/><path class="cls-5" d="M134.5,47C150.8,47,164,59.77,164,75.51S150.8,104,134.5,104,105,91.25,105,75.51,118.2,47,134.5,47Z" transform="translate(0.08 -0.02)"/><path class="cls-6" d="M112.5,130a3.48,3.48,0,0,1-2.85-1.49,13,13,0,0,0-21.36,0,3.48,3.48,0,0,1-5.7-4,20,20,0,0,1,32.76,0A3.48,3.48,0,0,1,112.5,130Z" transform="translate(0.08 -0.02)"/><path class="cls-2" d="M67.57,113.11c-1.2,3.43-6.11,4.85-11,3.18s-7.85-5.8-6.65-9.23,6.1-4.85,11-3.18S68.76,109.68,67.57,113.11Z" transform="translate(0.08 -0.02)"/><path class="cls-7" d="M127.46,113.11c1.19,3.43,6.11,4.85,11,3.18s7.84-5.8,6.65-9.23-6.1-4.85-11-3.18S126.27,109.68,127.46,113.11Z" transform="translate(0.08 -0.02)"/><path class="cls-6" d="M81.18,98A7.16,7.16,0,1,1,74,90.57,7.3,7.3,0,0,1,81.18,98Z" transform="translate(0.08 -0.02)"/><path class="cls-7" d="M129,98a7.16,7.16,0,1,1-7.15-7.43A7.3,7.3,0,0,1,129,98Z" transform="translate(0.08 -0.02)"/><path class="cls-8" d="M199.8,133l9.21-9.19,36.13,36.05-9.21,9.19Z" transform="translate(0.08 -0.02)"/><path class="cls-9" d="M163.11,29A64,64,0,1,1,99,93,64,64,0,0,1,163.11,29Z" transform="translate(0.08 -0.02)"/><path class="cls-10" d="M163.47,41.29A52,52,0,1,1,111.3,93.34,52.11,52.11,0,0,1,163.47,41.29Z" transform="translate(0.08 -0.02)"/><path class="cls-9" d="M216.1,147.87l7.79-7.78a7,7,0,0,1,9.92,0L260,166.24a7,7,0,0,1,0,9.9l-7.79,7.78a7,7,0,0,1-9.92,0L216.1,157.76A7,7,0,0,1,216.1,147.87Z" transform="translate(0.08 -0.02)"/><circle class="cls-11" cx="143.09" cy="87.52" r="19"/><circle class="cls-12" cx="143.09" cy="87.52" r="14"/><path class="cls-2" d="M171.93,104.23c10.87-3.72,21.84-.55,24.5,7.11s-4,16.87-14.86,20.6-21.84.55-24.5-7.11S161.06,108,171.93,104.23Z" transform="translate(0.08 -0.02)"/><circle class="cls-13" cx="137.09" cy="81.52" r="7"/><circle class="cls-13" cx="147.59" cy="95.02" r="4.5"/></svg>