<svg width="52" height="60" fill="none" viewBox="0 0 52 60" xmlns="http://www.w3.org/2000/svg">
  <path fill="#0E960B" d="M50.926 5.478 26.284.048a.877.877 0 0 0-.568 0L1.074 5.477A1.352 1.352 0 0 0 0 6.803v13.639c0 13.07 6.192 25.32 16.744 33.023l8.466 6.25a1.33 1.33 0 0 0 1.643 0l8.467-6.25C45.808 45.762 52 33.449 52 20.442V6.803c0-.63-.442-1.2-1.074-1.325Z"/>
  <path fill="#fff" d="m33.634 20-1.265 1.442-8.815 10.046-2.645-2.841-1.303-1.4-2.606 2.8 1.303 1.4 3.986 4.282 1.342 1.442 1.303-1.483L35.052 24.16l1.265-1.441L33.634 20Z"/>
</svg>
