<svg viewBox="554.5 391.7215 380.0001 111.557" width="5000" height="1467.8548768802957" xmlns="http://www.w3.org/2000/svg" xmlns:xlink="http://www.w3.org/1999/xlink" preserveAspectRatio="none"><defs></defs><style>.a6izo4zJpcolor {fill:#ffffff;fill-opacity:1;}.aD6z1nYkhstrokeColor-str {stroke:#FFFFFF;stroke-opacity:1;}.aQiKraIIl9i0filter-floo {flood-color:#0E0E0E;flood-opacity:0.5;}.background {fill:#ffffff;fill-opacity:1;}.icon3 {fill:#1a1a1a;fill-opacity:1;}.icon3-str {stroke:#DFDFDF;stroke-opacity:1;}.shapeStroke-str {stroke:#EBE7D9;stroke-opacity:1;}</style><defs>
      <filter
        x="554.5002"
        y="391.7215"
        width="379.9999"
        height="74.6058"
        id="QiKraIIl9i"
        filterUnits="userSpaceOnUse"
        primitiveUnits="userSpaceOnUse"
        color-interpolation-filters="sRGB">
        <feMerge><feMergeNode in="SourceGraphic" /></feMerge>
      </filter></defs><g opacity="1" transform="rotate(0 554.5 392.7873)">
<svg width="380" height="180.4743" x="554.5" y="392.7873" version="1.1" preserveAspectRatio="none" viewBox="0 0 380 72.4743">
  <rect x="0" y="0" width="380" height="180.4743" class="icon3 shapeStroke-str" style="stroke-width:0;" rx="0px" ry="0px" />
</svg>
</g><g opacity="1" transform="rotate(0 554.5002 391.7215)">
<svg width="376.9999" height="69.6058" x="555.5002" y="396.7215" version="1.1" preserveAspectRatio="none" viewBox="0.84 -28.56 148.32 29.12">
  <g transform="matrix(1 0 0 1 0 0)" class="background"><path id="id-D6z1nYkh6" d="M12.64 0.56Q9.24 0.56 6.04-0.28Q2.84-1.12 0.84-2.52L0.84-2.52L3.44-8.36Q5.32-7.12 7.80-6.36Q10.28-5.60 12.68-5.60L12.68-5.60Q17.24-5.60 17.24-7.88L17.24-7.88Q17.24-9.08 15.94-9.66Q14.64-10.24 11.76-10.88L11.76-10.88Q8.60-11.56 6.48-12.34Q4.36-13.12 2.84-14.84Q1.32-16.56 1.32-19.48L1.32-19.48Q1.32-22.04 2.72-24.10Q4.12-26.16 6.90-27.36Q9.68-28.56 13.72-28.56L13.72-28.56Q16.48-28.56 19.16-27.94Q21.84-27.32 23.88-26.12L23.88-26.12L21.44-20.24Q17.44-22.40 13.68-22.40L13.68-22.40Q11.32-22.40 10.24-21.70Q9.16-21 9.16-19.88L9.16-19.88Q9.16-18.76 10.44-18.20Q11.72-17.64 14.56-17.04L14.56-17.04Q17.76-16.36 19.86-15.58Q21.96-14.80 23.50-13.10Q25.04-11.40 25.04-8.48L25.04-8.48Q25.04-5.96 23.64-3.92Q22.24-1.88 19.44-0.66Q16.64 0.56 12.64 0.56L12.64 0.56Z M28.68 0L28.68-28L36.60-28L36.60 0L28.68 0Z M56.20 0.56Q51.80 0.56 48.30-1.30Q44.80-3.16 42.80-6.48Q40.80-9.80 40.80-14L40.80-14Q40.80-18.20 42.80-21.52Q44.80-24.84 48.30-26.70Q51.80-28.56 56.20-28.56L56.20-28.56Q60.04-28.56 63.12-27.20Q66.20-25.84 68.24-23.28L68.24-23.28L63.20-18.72Q60.48-22 56.60-22L56.60-22Q54.32-22 52.54-21Q50.76-20 49.78-18.18Q48.80-16.36 48.80-14L48.80-14Q48.80-11.64 49.78-9.82Q50.76-8 52.54-7Q54.32-6 56.60-6L56.60-6Q60.48-6 63.20-9.28L63.20-9.28L68.24-4.72Q66.20-2.16 63.12-0.80Q60.04 0.56 56.20 0.56L56.20 0.56Z M90.56 0L82.56-10.16L79.60-7L79.60 0L71.76 0L71.76-28L79.60-28L79.60-16.36L90.44-28L99.16-28L87.72-15.60L99.76 0L90.56 0Z M111.08 0.56Q107.68 0.56 104.48-0.28Q101.28-1.12 99.28-2.52L99.28-2.52L101.88-8.36Q103.76-7.12 106.24-6.36Q108.72-5.60 111.12-5.60L111.12-5.60Q115.68-5.60 115.68-7.88L115.68-7.88Q115.68-9.08 114.38-9.66Q113.08-10.24 110.20-10.88L110.20-10.88Q107.04-11.56 104.92-12.34Q102.80-13.12 101.28-14.84Q99.76-16.56 99.76-19.48L99.76-19.48Q99.76-22.04 101.16-24.10Q102.56-26.16 105.34-27.36Q108.12-28.56 112.16-28.56L112.16-28.56Q114.92-28.56 117.60-27.94Q120.28-27.32 122.32-26.12L122.32-26.12L119.88-20.24Q115.88-22.40 112.12-22.40L112.12-22.40Q109.76-22.40 108.68-21.70Q107.60-21 107.60-19.88L107.60-19.88Q107.60-18.76 108.88-18.20Q110.16-17.64 113-17.04L113-17.04Q116.20-16.36 118.30-15.58Q120.40-14.80 121.94-13.10Q123.48-11.40 123.48-8.48L123.48-8.48Q123.48-5.96 122.08-3.92Q120.68-1.88 117.88-0.66Q115.08 0.56 111.08 0.56L111.08 0.56Z M132.68 0L132.68-21.72L124.08-21.72L124.08-28L149.16-28L149.16-21.72L140.60-21.72L140.60 0L132.68 0Z"/></g>
</svg>
</g><g opacity="1" transform="rotate(0 604.4315 483.2785)">
<svg width="280.137" height="20" x="604.4315" y="483.2785" version="1.1" preserveAspectRatio="none" viewBox="2.28 -28.32 401.16 28.64">
  <g transform="matrix(1 0 0 1 0 0)" class="a6izo4zJpcolor"><path id="id-6izo4zJp11" d="M2.28-9.32L2.28-12.64L13.04-12.64L13.04-9.32L2.28-9.32Z M50.36-14.52Q52.80-13.84 54.20-12.06Q55.60-10.28 55.60-7.56L55.60-7.56Q55.60-3.92 52.86-1.96Q50.12 0 44.88 0L44.88 0L31.52 0L31.52-28L44.08-28Q48.88-28 51.50-26.08Q54.12-24.16 54.12-20.76L54.12-20.76Q54.12-18.56 53.10-16.96Q52.08-15.36 50.36-14.52L50.36-14.52ZM43.72-24.76L35.52-24.76L35.52-15.80L43.72-15.80Q46.80-15.80 48.46-16.94Q50.12-18.08 50.12-20.28L50.12-20.28Q50.12-22.48 48.46-23.62Q46.80-24.76 43.72-24.76L43.72-24.76ZM44.72-3.24Q48.12-3.24 49.84-4.36Q51.56-5.48 51.56-7.88L51.56-7.88Q51.56-12.56 44.72-12.56L44.72-12.56L35.52-12.56L35.52-3.24L44.72-3.24Z M85.40 0.32Q79.80 0.32 76.68-2.88Q73.56-6.08 73.56-12.08L73.56-12.08L73.56-28L77.56-28L77.56-12.24Q77.56-3.24 85.44-3.24L85.44-3.24Q89.28-3.24 91.32-5.46Q93.36-7.68 93.36-12.24L93.36-12.24L93.36-28L97.24-28L97.24-12.08Q97.24-6.04 94.12-2.86Q91 0.32 85.40 0.32L85.40 0.32Z M129.96 0.32Q125.76 0.32 122.38-1.54Q119-3.40 117.08-6.66Q115.16-9.92 115.16-14L115.16-14Q115.16-18.08 117.08-21.34Q119-24.60 122.40-26.46Q125.80-28.32 130-28.32L130-28.32Q133.28-28.32 136-27.22Q138.72-26.12 140.64-23.96L140.64-23.96L138.04-21.44Q134.88-24.76 130.16-24.76L130.16-24.76Q127.04-24.76 124.52-23.36Q122-21.96 120.58-19.50Q119.16-17.04 119.16-14L119.16-14Q119.16-10.96 120.58-8.50Q122-6.04 124.52-4.64Q127.04-3.24 130.16-3.24L130.16-3.24Q134.84-3.24 138.04-6.60L138.04-6.60L140.64-4.08Q138.72-1.92 135.98-0.80Q133.24 0.32 129.96 0.32L129.96 0.32Z M178.44-28L182.44-28L182.44 0L178.44 0L178.44-12.48L162.36-12.48L162.36 0L158.36 0L158.36-28L162.36-28L162.36-15.96L178.44-15.96L178.44-28Z M223.76 0L220.68-7L205.80-7L202.72 0L198.60 0L211.28-28L215.24-28L227.96 0L223.76 0ZM207.20-10.20L219.28-10.20L213.24-23.92L207.20-10.20Z M267.20 0L262.84 0L256.80-8.60Q255.68-8.52 255.04-8.52L255.04-8.52L248.12-8.52L248.12 0L244.12 0L244.12-28L255.04-28Q260.48-28 263.60-25.40Q266.72-22.80 266.72-18.24L266.72-18.24Q266.72-15 265.12-12.72Q263.52-10.44 260.56-9.40L260.56-9.40L267.20 0ZM254.92-11.92Q258.72-11.92 260.72-13.56Q262.72-15.20 262.72-18.24L262.72-18.24Q262.72-21.28 260.72-22.90Q258.72-24.52 254.92-24.52L254.92-24.52L248.12-24.52L248.12-11.92L254.92-11.92Z M289.20-3.48L305.52-3.48L305.52 0L285.20 0L285.20-28L304.96-28L304.96-24.52L289.20-24.52L289.20-15.92L303.24-15.92L303.24-12.52L289.20-12.52L289.20-3.48Z M332.16 0.32Q329 0.32 326.06-0.66Q323.12-1.64 321.44-3.20L321.44-3.20L322.92-6.32Q324.52-4.88 327.02-3.98Q329.52-3.08 332.16-3.08L332.16-3.08Q335.64-3.08 337.36-4.26Q339.08-5.44 339.08-7.40L339.08-7.40Q339.08-8.84 338.14-9.74Q337.20-10.64 335.82-11.12Q334.44-11.60 331.92-12.20L331.92-12.20Q328.76-12.96 326.82-13.72Q324.88-14.48 323.50-16.06Q322.12-17.64 322.12-20.32L322.12-20.32Q322.12-22.56 323.30-24.36Q324.48-26.16 326.88-27.24Q329.28-28.32 332.84-28.32L332.84-28.32Q335.32-28.32 337.72-27.68Q340.12-27.04 341.84-25.84L341.84-25.84L340.52-22.64Q338.76-23.76 336.76-24.34Q334.76-24.92 332.84-24.92L332.84-24.92Q329.44-24.92 327.74-23.68Q326.04-22.44 326.04-20.48L326.04-20.48Q326.04-19.04 327-18.14Q327.96-17.24 329.38-16.74Q330.80-16.24 333.24-15.68L333.24-15.68Q336.40-14.92 338.32-14.16Q340.24-13.40 341.62-11.84Q343-10.28 343-7.64L343-7.64Q343-5.44 341.80-3.62Q340.60-1.80 338.16-0.74Q335.72 0.32 332.16 0.32L332.16 0.32Z M366 0L366-24.52L356.40-24.52L356.40-28L379.56-28L379.56-24.52L369.96-24.52L369.96 0L366 0Z M392.68-9.32L392.68-12.64L403.44-12.64L403.44-9.32L392.68-9.32Z"/></g>
</svg>
</g></svg>