<?xml version="1.0" encoding="iso-8859-1"?>
<!-- Uploaded to: SVG Repo, www.svgrepo.com, Generator: SVG Repo Mixer Tools -->
<!DOCTYPE svg PUBLIC "-//W3C//DTD SVG 1.1//EN" "http://www.w3.org/Graphics/SVG/1.1/DTD/svg11.dtd">
<svg fill="#000000" height="800px" width="800px" version="1.1" id="Capa_1" xmlns="http://www.w3.org/2000/svg" xmlns:xlink="http://www.w3.org/1999/xlink" 
	 viewBox="0 0 442 442" xml:space="preserve">
<g>
	<path d="M231.5,50.5c0-5.79-4.71-10.5-10.5-10.5c-5.79,0-10.5,4.71-10.5,10.5S215.21,61,221,61C226.79,61,231.5,56.29,231.5,50.5z"
		/>
	<path d="M346,163.682h-60V122c0-5.522-4.478-10-10-10h-10V10c0-5.523-4.478-10-10-10h-70c-5.523,0-10,4.477-10,10v102h-10
		c-5.523,0-10,4.478-10,10v41.682H96c-11.028,0-20,8.972-20,20V422c0,11.028,8.972,20,20,20h250c11.028,0,20-8.972,20-20V183.682
		C366,172.653,357.028,163.682,346,163.682z M196,20h50v92h-50V20z M96,422V183.682h70c5.523,0,10-4.477,10-10V132h35v71.682h-85
		c-5.523,0-10,4.478-10,10V392c0,5.522,4.477,10,10,10h190c5.522,0,10-4.478,10-10v-60.892c0-5.522-4.478-10-10-10s-10,4.478-10,10
		V382H136V223.682h75V352c0,5.522,4.477,10,10,10c5.523,0,10-4.478,10-10V223.682h75V297c0,5.522,4.478,10,10,10s10-4.478,10-10
		v-83.318c0-5.522-4.478-10-10-10h-85V132h35v41.682c0,5.523,4.478,10,10,10h70L346.002,422H96z"/>
</g>
</svg>